<svg width="512" height="512" viewBox="0 0 512 512" fill="none" xmlns="http://www.w3.org/2000/svg">
<path d="M115.651 63.969V66.6391M115.651 66.6391V413.32M115.651 66.6391L113.488 68.7366M115.651 66.6391L119.478 62.9293M115.651 413.32V417.811M115.651 413.32L111 411.422M115.651 413.32L253.603 469.606M163.986 90.7535V99.4276M163.986 99.4276V387.864M163.986 99.4276L198.702 65.5754M163.986 99.4276L158.674 104.607M163.986 387.864V387.945M163.986 387.864L199.944 361.464M163.986 387.864L163.915 387.916M163.986 387.945V392.435M163.986 387.945L163.915 387.916M163.986 387.945L255.799 425.406M202.654 65.3784V68.8108M202.654 68.8108V359.475M202.654 68.8108L198.702 65.5754M202.654 68.8108L204.657 70.4508M202.654 359.475V362.57M202.654 359.475L207.988 355.559M202.654 359.475L199.944 361.464M202.654 362.57V364.241M202.654 362.57L199.944 361.464M202.654 362.57L306.058 404.76M404.658 264.371V268.83M404.658 268.83V273.927M404.658 268.83L301.047 225.695M404.658 268.83L409.319 270.77M404.658 273.927V439.386M404.658 273.927L410 272.474M404.658 273.927L361.136 285.764M404.658 439.386V443.935M404.658 439.386L334.448 469.971M404.658 439.386L408.882 437.547M297.528 224.23L301.047 225.695M301.047 225.695L304.213 224.436M301.047 225.695L259.626 242.173M360.547 289.525V425.972M360.547 425.972V429.088M360.547 425.972L349.454 430.498M360.547 425.972L367.042 423.322M252.782 242.255L361.136 285.764M361.136 285.764L366.992 288.115M361.136 285.764L352.491 288.115M252.782 287.366L257.433 289.264M257.433 289.264L314.951 312.732M257.433 289.264V293.754M257.433 289.264V248.643M314.951 312.732L319.63 314.641M314.951 312.732V308.334M314.951 312.732V401.271M198.002 360.672L199.944 361.464M252.417 426.786L255.799 425.406M255.799 425.406L314.951 401.271M255.799 425.406L259.213 426.798M314.951 401.271L319.587 399.38M314.951 401.271V405.292M253.603 469.606L254.497 469.971M253.603 469.606L252.71 469.971M253.603 469.606L349.454 430.498M254.497 469.971L257.02 471M254.497 469.971H252.71M254.497 469.971H334.448M159.335 386.047L163.915 387.916M163.915 387.916L161.087 389.993M332.975 470.612L334.448 469.971M334.448 469.971H336.38M252.6 469.971H252.71M252.71 469.971L250.226 470.984M349.269 430.498H349.454M349.454 430.498H404.048M119.478 62.9293L159.631 24M119.478 62.9293L159.623 95.7983M119.478 62.9293L113.742 58.2334M158.682 32.8089L198.702 65.5754M198.702 65.5754L203.798 60.6066" stroke="url(#paint0_linear_86_2)" stroke-width="14"/>
<defs>
<linearGradient id="paint0_linear_86_2" x1="188.5" y1="247" x2="492" y2="543.5" gradientUnits="userSpaceOnUse">
<stop stop-color="#FF0096"/>
<stop offset="0.495192" stop-color="#A36FFD"/>
<stop offset="0.798077" stop-color="#00E5FF"/>
</linearGradient>
</defs>
</svg>
