<svg xmlns="http://www.w3.org/2000/svg" version="1.1" xmlns:xlink="http://www.w3.org/1999/xlink" width="186" height="188"><svg width="186" height="188" viewBox="0 0 186 188" fill="none" xmlns="http://www.w3.org/2000/svg">
<g clip-path="url(#clip0_77_31)">
<path d="M42.6334 20.0055V21.0747M42.6334 21.0747V159.902M42.6334 21.0747L41.8736 21.9147M42.6334 21.0747L43.9771 19.5891M42.6334 159.902V161.7M42.6334 159.902L41 159.142M42.6334 159.902L91.0781 182.442M59.6071 30.7313V34.2048M59.6071 34.2048V149.709M59.6071 34.2048L71.7984 20.6488M59.6071 34.2048L57.7418 36.2789M59.6071 149.709V149.741M59.6071 149.709L72.2345 139.137M59.6071 149.709L59.5823 149.729M59.6071 149.741V151.539M59.6071 149.741L59.5823 149.729M59.6071 149.741L91.8493 164.742M73.1861 20.5699V21.9444M73.1861 21.9444V138.34M73.1861 21.9444L71.7984 20.6488M73.1861 21.9444L73.8895 22.6011M73.1861 138.34V139.579M73.1861 138.34L75.0592 136.772M73.1861 138.34L72.2345 139.137M73.1861 139.579V140.249M73.1861 139.579L72.2345 139.137M73.1861 139.579L109.498 156.474M144.124 100.256V102.042M144.124 102.042V104.082M144.124 102.042L107.739 84.7684M144.124 102.042L145.761 102.819M144.124 104.082V170.34M144.124 104.082L146 103.501M144.124 104.082L128.841 108.823M144.124 170.34V172.162M144.124 170.34L119.468 182.588M144.124 170.34L145.607 169.604M106.503 84.1816L107.739 84.7684M107.739 84.7684L108.851 84.2641M107.739 84.7684L93.1932 91.3667M128.634 110.329V164.969M128.634 164.969V166.217M128.634 164.969L124.738 166.781M128.634 164.969L130.915 163.907M90.7896 91.3996L128.841 108.823M128.841 108.823L130.897 109.764M128.841 108.823L125.805 109.764M90.7896 109.464L92.423 110.224M92.423 110.224L112.622 119.622M92.423 110.224V112.022M92.423 110.224V93.9578M112.622 119.622L114.265 120.386M112.622 119.622V117.861M112.622 119.622V155.077M71.5527 138.819L72.2345 139.137M90.6616 165.294L91.8493 164.742M91.8493 164.742L112.622 155.077M91.8493 164.742L93.0479 165.3M112.622 155.077L114.25 154.32M112.622 155.077V156.687M91.0781 182.442L91.392 182.588M91.0781 182.442L90.7643 182.588M91.0781 182.442L124.738 166.781M91.392 182.588L92.2781 183M91.392 182.588H90.7643M91.392 182.588H119.468M57.9737 148.981L59.5823 149.729M59.5823 149.729L58.5892 150.561M118.951 182.845L119.468 182.588M119.468 182.588H120.147M90.7256 182.588H90.7643M90.7643 182.588L89.8921 182.994M124.673 166.781H124.738M124.738 166.781H143.91M43.9771 19.5891L58.0777 4M43.9771 19.5891L58.0751 32.7514M43.9771 19.5891L41.963 17.7087M57.7444 7.52749L71.7984 20.6488M71.7984 20.6488L73.5878 18.659" stroke="black" stroke-width="5"></path>
</g>
<defs>
<clipPath id="SvgjsClipPath1034">
<rect width="186" height="188" fill="white"></rect>
</clipPath>
</defs>
</svg><style>@media (prefers-color-scheme: light) { :root { filter: none; } }
@media (prefers-color-scheme: dark) { :root { filter: none; } }
</style></svg>