<svg width="186" height="188" viewBox="0 0 186 188" fill="none" xmlns="http://www.w3.org/2000/svg">
<g clip-path="url(#clip0_78_37)">
<path d="M48.4435 29.1761V30.1232M48.4435 30.1232V153.083M48.4435 30.1232L47.7721 30.8671M48.4435 30.1232L49.631 28.8074M48.4435 153.083V154.676M48.4435 153.083L47 152.41M48.4435 153.083L91.255 173.047M63.4435 38.676V41.7525M63.4435 41.7525V144.055M63.4435 41.7525L74.2171 29.7459M63.4435 41.7525L61.795 43.5896M63.4435 144.055V144.083M63.4435 144.055L74.6025 134.691M63.4435 144.055L63.4216 144.073M63.4435 144.083V145.676M63.4435 144.083L63.4216 144.073M63.4435 144.083L91.9365 157.37M75.4435 29.676V30.8934M75.4435 30.8934V133.986M75.4435 30.8934L74.2171 29.7459M75.4435 30.8934L76.0651 31.4751M75.4435 133.986V135.083M75.4435 133.986L77.0987 132.597M75.4435 133.986L74.6025 134.691M75.4435 135.083V135.676M75.4435 135.083L74.6025 134.691M75.4435 135.083L107.533 150.047M138.133 100.254V101.836M138.133 101.836V103.644M138.133 101.836L105.979 86.537M138.133 101.836L139.579 102.524M138.133 103.644V162.329M138.133 103.644L139.79 103.128M138.133 103.644L124.626 107.842M138.133 162.329V163.942M138.133 162.329L116.344 173.176M138.133 162.329L139.443 161.676M104.886 86.0173L105.979 86.537M105.979 86.537L106.961 86.0903M105.979 86.537L93.1241 92.3811M124.443 109.176V157.571M124.443 157.571V158.676M124.443 157.571L121.001 159.176M124.443 157.571L126.459 156.631M91 92.4102L124.626 107.842M124.626 107.842L126.443 108.676M124.626 107.842L121.943 108.676M91 108.41L92.4435 109.083M92.4435 109.083L110.293 117.407M92.4435 109.083V110.676M92.4435 109.083V94.676M110.293 117.407L111.745 118.084M110.293 117.407V115.847M110.293 117.407V148.81M74 134.41L74.6025 134.691M90.8869 157.859L91.9365 157.37M91.9365 157.37L110.293 148.81M91.9365 157.37L92.9957 157.864M110.293 148.81L111.732 148.139M110.293 148.81V150.236M91.255 173.047L91.5323 173.176M91.255 173.047L90.9777 173.176M91.255 173.047L121.001 159.176M91.5323 173.176L92.3154 173.541M91.5323 173.176H90.9777M91.5323 173.176H116.344M62 143.41L63.4216 144.073M63.4216 144.073L62.5439 144.81M115.887 173.404L116.344 173.176M116.344 173.176H116.943M90.9435 173.176H90.9777M90.9777 173.176L90.2069 173.535M120.943 159.176H121.001M121.001 159.176H137.943M49.631 28.8074L62.0919 15M49.631 28.8074L62.0896 40.4653M49.631 28.8074L47.851 27.1418M61.7973 18.1243L74.2171 29.7459M74.2171 29.7459L75.7984 27.9836" stroke="white" stroke-width="5"/>
<path d="M48.4435 29.1761V30.1232M48.4435 30.1232V153.083M48.4435 30.1232L47.7721 30.8671M48.4435 30.1232L49.631 28.8074M48.4435 153.083V154.676M48.4435 153.083L47 152.41M48.4435 153.083L91.255 173.047M63.4435 38.676V41.7525M63.4435 41.7525V144.055M63.4435 41.7525L74.2171 29.7459M63.4435 41.7525L61.795 43.5896M63.4435 144.055V144.083M63.4435 144.055L74.6025 134.691M63.4435 144.055L63.4216 144.073M63.4435 144.083V145.676M63.4435 144.083L63.4216 144.073M63.4435 144.083L91.9365 157.37M75.4435 29.676V30.8934M75.4435 30.8934V133.986M75.4435 30.8934L74.2171 29.7459M75.4435 30.8934L76.0651 31.4751M75.4435 133.986V135.083M75.4435 133.986L77.0987 132.597M75.4435 133.986L74.6025 134.691M75.4435 135.083V135.676M75.4435 135.083L74.6025 134.691M75.4435 135.083L107.533 150.047M138.133 100.254V101.836M138.133 101.836V103.644M138.133 101.836L105.979 86.537M138.133 101.836L139.579 102.524M138.133 103.644V162.329M138.133 103.644L139.79 103.128M138.133 103.644L124.626 107.842M138.133 162.329V163.942M138.133 162.329L116.344 173.176M138.133 162.329L139.443 161.676M104.886 86.0173L105.979 86.537M105.979 86.537L106.961 86.0903M105.979 86.537L93.1241 92.3811M124.443 109.176V157.571M124.443 157.571V158.676M124.443 157.571L121.001 159.176M124.443 157.571L126.459 156.631M91 92.4102L124.626 107.842M124.626 107.842L126.443 108.676M124.626 107.842L121.943 108.676M91 108.41L92.4435 109.083M92.4435 109.083L110.293 117.407M92.4435 109.083V110.676M92.4435 109.083V94.676M110.293 117.407L111.745 118.084M110.293 117.407V115.847M110.293 117.407V148.81M74 134.41L74.6025 134.691M90.8869 157.859L91.9365 157.37M91.9365 157.37L110.293 148.81M91.9365 157.37L92.9957 157.864M110.293 148.81L111.732 148.139M110.293 148.81V150.236M91.255 173.047L91.5323 173.176M91.255 173.047L90.9777 173.176M91.255 173.047L121.001 159.176M91.5323 173.176L92.3154 173.541M91.5323 173.176H90.9777M91.5323 173.176H116.344M62 143.41L63.4216 144.073M63.4216 144.073L62.5439 144.81M115.887 173.404L116.344 173.176M116.344 173.176H116.943M90.9435 173.176H90.9777M90.9777 173.176L90.2069 173.535M120.943 159.176H121.001M121.001 159.176H137.943M49.631 28.8074L62.0919 15M49.631 28.8074L62.0896 40.4653M49.631 28.8074L47.851 27.1418M61.7973 18.1243L74.2171 29.7459M74.2171 29.7459L75.7984 27.9836" stroke="white" stroke-width="5"/>
</g>
<defs>
<clipPath id="clip0_78_37">
<rect width="186" height="188" fill="white"/>
</clipPath>
</defs>
</svg>
